<svg width="113" height="23" viewBox="0 0 113 23" fill="none" xmlns="http://www.w3.org/2000/svg">
<path fill-rule="evenodd" clip-rule="evenodd" d="M106.854 5.61865H64.2158V16.8442C64.2158 19.9557 66.7668 22.5181 69.8644 22.5181H112.745V11.4755C112.745 8.30303 110.073 5.61865 106.854 5.61865ZM76.8492 11.5365H72.7798C72.7191 11.5365 72.6583 11.5365 72.6583 11.5365C72.5976 11.5365 72.5976 11.5365 72.5369 11.5975C72.4761 11.6585 72.4761 11.6585 72.4761 11.7195C72.4761 11.7805 72.4761 11.8415 72.4761 11.8415V13.4278H75.6952V14.5259H72.4154V17.6984H71.0184V11.4145C71.0184 11.2925 71.0184 11.1704 71.0792 11.0484C71.1399 10.9264 71.2006 10.8044 71.3221 10.6824C71.4436 10.5604 71.5651 10.4993 71.6865 10.4383C71.808 10.4383 71.9295 10.3773 72.051 10.3773H76.7885V11.5365H76.8492ZM84.5021 14.831C84.5021 15.075 84.4414 15.38 84.3807 15.6241C84.3199 15.8681 84.2592 16.1121 84.1377 16.3562C84.0163 16.6002 83.8948 16.7832 83.7126 16.9663C83.5304 17.1493 83.2874 17.3323 83.0445 17.3933C82.8015 17.5153 82.5586 17.5764 82.3156 17.6374C82.0727 17.6984 81.769 17.6984 81.526 17.6984C81.2831 17.6984 81.0401 17.6984 80.8579 17.6984C80.6149 17.6984 80.4327 17.6984 80.1291 17.6984C79.8861 17.6984 79.6431 17.6374 79.3395 17.6374C79.0965 17.5764 78.8536 17.5153 78.6106 17.3933C78.3677 17.2713 78.1247 17.1493 77.9425 16.9663C77.7603 16.7832 77.5781 16.5392 77.4566 16.2952C77.3351 16.0511 77.2744 15.7461 77.2137 15.5021C77.1529 15.258 77.1529 14.953 77.0922 14.7089C77.0922 14.4649 77.0922 14.2209 77.0922 14.0378C77.0922 13.7938 77.0922 13.5498 77.0922 13.2447C77.0922 13.0007 77.1529 12.6957 77.2137 12.4516C77.2744 12.2076 77.3351 11.9636 77.4566 11.7195C77.5781 11.4755 77.6996 11.2925 77.9425 11.0484C78.1247 10.8654 78.3677 10.6824 78.6106 10.6214C78.8536 10.4993 79.0965 10.4383 79.3395 10.3773C79.5824 10.3163 79.8254 10.3163 80.1291 10.3163C80.372 10.3163 80.6149 10.3163 80.8579 10.3163C81.1008 10.3163 81.2831 10.3163 81.5868 10.3163C81.8297 10.3163 82.0726 10.3773 82.3763 10.3773C82.6193 10.4383 82.8622 10.4993 83.1052 10.6214C83.3481 10.7434 83.5911 10.8654 83.7733 11.0484C83.9555 11.2315 84.1377 11.4145 84.1985 11.6585C84.3199 11.9025 84.3807 12.1466 84.4414 12.3906C84.5022 12.6346 84.5629 12.9397 84.5629 13.1837C84.5629 13.4278 84.5629 13.7328 84.5629 13.9158C84.5629 14.3429 84.5629 14.5869 84.5021 14.831ZM90.5759 17.6984L88.2071 15.319C88.1464 15.258 88.0249 15.136 87.9642 15.014C87.9035 14.892 87.8427 14.77 87.8427 14.7089V14.5259C87.8427 14.4039 87.9035 14.2819 88.0249 14.1599C88.1464 14.0378 88.2679 14.0378 88.5108 14.0378H89.9078C90.0293 14.0378 90.1507 14.0378 90.2722 13.9768C90.3937 13.9158 90.5152 13.8548 90.6366 13.7328C90.6974 13.6718 90.6974 13.6108 90.6974 13.4888C90.6974 13.4278 90.7581 13.3057 90.7581 13.1837C90.7581 13.0617 90.7581 13.0007 90.7581 12.8787C90.7581 12.8177 90.7581 12.6957 90.7581 12.6346C90.7581 12.3296 90.7581 12.1466 90.6974 11.9636C90.6366 11.7805 90.5759 11.7195 90.5152 11.5975C90.3937 11.4755 90.2722 11.4145 90.1507 11.4145C90.0293 11.4145 89.8471 11.4145 89.7863 11.4145H87.539C87.4783 11.4145 87.4176 11.4145 87.3568 11.4145C87.2961 11.4145 87.2353 11.4755 87.1746 11.5365C87.1139 11.5975 87.0531 11.6585 87.0531 11.7195C87.0531 11.7805 87.0531 11.8415 87.0531 11.9636V17.6374H85.6562V11.5975C85.6562 11.4145 85.6562 11.2925 85.7169 11.1094C85.7169 10.9264 85.8384 10.8044 85.9599 10.6214C86.0813 10.4993 86.2635 10.4383 86.385 10.3773C86.5672 10.3163 86.6887 10.3163 86.8102 10.3163H90.2722C90.3937 10.3163 90.5152 10.3163 90.6366 10.3163C90.7581 10.3163 90.9403 10.3773 91.0618 10.3773C91.1833 10.4383 91.3048 10.4993 91.487 10.5604C91.6084 10.6214 91.7299 10.8044 91.8514 10.9264C92.0336 11.1704 92.1551 11.4145 92.1551 11.7195C92.2158 12.0246 92.2158 12.2686 92.2158 12.5126C92.2158 12.7567 92.2158 13.0617 92.1551 13.3057C92.0943 13.6108 92.0336 13.8548 91.9121 14.1599C91.8514 14.2209 91.7907 14.3429 91.7299 14.4039C91.6692 14.4649 91.5477 14.5869 91.487 14.6479C91.3655 14.7089 91.244 14.77 91.1225 14.831C90.9403 14.892 90.8189 14.892 90.5759 14.892H89.6648V14.953L92.398 17.5153H90.5759V17.6984ZM99.1399 17.6984H96.103C95.9208 17.6984 95.7386 17.6984 95.5564 17.6984C95.3742 17.6984 95.1312 17.6374 94.949 17.5764C94.7668 17.5153 94.5238 17.4543 94.3416 17.3323C94.1594 17.2103 93.9772 17.0883 93.795 16.9053C93.6128 16.7222 93.4913 16.4782 93.3698 16.2952C93.2484 16.0511 93.1876 15.8071 93.1269 15.6241C93.0661 15.38 93.0661 15.136 93.0054 14.892C93.0054 14.6479 93.0054 14.4649 93.0054 14.2209C93.0054 13.9768 93.0054 13.7328 93.0054 13.4278C93.0054 13.1837 93.0661 12.9397 93.1269 12.6957C93.1876 12.4516 93.2484 12.2076 93.3698 12.0246C93.4913 11.7805 93.6128 11.5975 93.7343 11.4145C93.9165 11.1704 94.0987 11.0484 94.3416 10.9264C94.5846 10.8044 94.7668 10.7434 95.0097 10.6214C95.2527 10.5604 95.4349 10.4993 95.6171 10.4993C95.7993 10.4993 95.9815 10.4993 96.103 10.4993H99.0184V11.5975H96.7104C96.5282 11.5975 96.346 11.5975 96.103 11.5975C95.9208 11.5975 95.7386 11.6585 95.5564 11.6585C95.3742 11.7195 95.2527 11.7805 95.1312 11.8415C95.0097 11.9025 94.8883 12.0246 94.7668 12.2076C94.6453 12.3906 94.5846 12.5736 94.4631 12.8787C94.4024 13.1837 94.3416 13.6108 94.3416 14.1599C94.3416 14.4039 94.3416 14.6479 94.4024 14.892C94.4024 15.075 94.4631 15.258 94.4631 15.38C94.5238 15.5021 94.5238 15.6241 94.5846 15.7461C94.6453 15.8071 94.6453 15.9291 94.7061 15.9901C94.8883 16.2952 95.1312 16.4782 95.4956 16.5392C95.7993 16.6002 96.2245 16.6612 96.6497 16.6612H99.1399V17.6984ZM105.882 17.6984H101.144C100.962 17.6984 100.841 17.6984 100.719 17.6984C100.598 17.6984 100.476 17.6374 100.355 17.5153C100.233 17.3933 100.172 17.2713 100.112 17.0883C100.112 16.9053 100.051 16.7832 100.051 16.6612V11.4755C100.051 11.3535 100.051 11.1704 100.112 11.0484C100.172 10.9264 100.233 10.8044 100.294 10.6824C100.415 10.5604 100.537 10.4993 100.719 10.4383C100.901 10.4383 101.023 10.3773 101.144 10.3773H105.821V11.4755H101.873C101.812 11.4755 101.752 11.4755 101.691 11.4755C101.63 11.4755 101.569 11.5365 101.509 11.5365C101.448 11.5975 101.448 11.6585 101.387 11.7195C101.387 11.7805 101.387 11.8415 101.387 11.9025V13.3668H105.7V14.4649H101.387V16.1732C101.387 16.2952 101.448 16.4172 101.509 16.4782C101.569 16.5392 101.63 16.5392 101.691 16.5392C101.752 16.5392 101.873 16.5392 101.995 16.5392H105.882V17.6984ZM82.9837 12.6957C82.923 12.5126 82.923 12.3906 82.8622 12.3296C82.8015 12.2076 82.7408 12.1466 82.68 12.0856C82.4371 11.8415 82.1941 11.6585 81.8297 11.5975C81.526 11.5365 81.1616 11.4755 80.7972 11.4755C80.4327 11.4755 80.0683 11.5365 79.7646 11.5975C79.4609 11.6585 79.1573 11.8415 78.975 12.0856C78.8536 12.2686 78.7321 12.5126 78.6714 12.8177C78.6106 13.1227 78.5499 13.5498 78.5499 14.0989C78.5499 14.4039 78.5499 14.6479 78.6106 14.892C78.6106 15.136 78.6713 15.319 78.7321 15.441C78.7928 15.6241 78.7928 15.7461 78.8536 15.8681C78.9143 15.9901 78.975 16.0511 79.0358 16.1732C79.1572 16.2952 79.2787 16.4172 79.4002 16.4782C79.5217 16.5392 79.7039 16.6002 79.8254 16.6612C80.0076 16.7222 80.1291 16.7222 80.3113 16.7222C80.4935 16.7222 80.6757 16.7222 80.8579 16.7222C81.0401 16.7222 81.2223 16.7222 81.4045 16.7222C81.5868 16.7222 81.769 16.6612 81.8904 16.6612C82.0727 16.6002 82.1941 16.5392 82.3156 16.4782C82.4371 16.4172 82.5585 16.2952 82.68 16.1732C82.7408 16.1121 82.8015 15.9901 82.8622 15.8681C82.923 15.7461 82.9837 15.6241 82.9837 15.441C83.0444 15.258 83.0445 15.075 83.1052 14.892C83.1052 14.6479 83.1659 14.4039 83.1659 14.0989C83.1659 13.7938 83.1659 13.4888 83.1052 13.3057C83.1052 13.0617 83.0444 12.8787 82.9837 12.6957Z" fill="#002266"/>
<path d="M15.0184 6.96084C14.654 6.53378 14.1074 6.22874 13.5 5.9847C12.8926 5.74067 12.2245 5.61865 11.4957 5.61865H1.95987V8.48606H10.2202C10.5239 8.48606 10.8275 8.54707 11.1312 8.60808C11.4349 8.66909 11.7386 8.91312 11.9816 9.21816C12.1638 9.4622 12.346 9.76724 12.4067 10.0113C12.4675 10.2553 12.4675 10.5604 12.4675 10.8044V11.9636H5.17896C4.75379 11.9636 4.26789 12.0246 3.72126 12.0856C3.17462 12.2076 2.62798 12.4516 2.14208 12.9397C1.5347 13.4888 1.10954 14.0989 0.92733 14.831C0.805855 15.6241 0.745117 16.3562 0.745117 17.1493C0.745117 17.4543 0.745117 17.8204 0.805855 18.2474C0.805855 18.6745 0.866592 19.0406 0.988067 19.4676C1.10954 19.8947 1.23102 20.3217 1.41323 20.6878C1.59544 21.0538 1.89913 21.4199 2.20282 21.7249C2.68872 22.152 3.17462 22.396 3.72126 22.457C4.26789 22.5181 4.75379 22.5791 5.23969 22.5791H13.257C13.6822 22.5791 14.0466 22.5181 14.4718 22.457C14.897 22.396 15.2614 22.213 15.5651 21.908C15.8688 21.6029 16.051 21.2369 16.1117 20.8098C16.1724 20.3827 16.2332 20.0167 16.2332 19.7117V10.9264C16.2332 9.95027 16.1117 9.15715 15.8688 8.48606C15.6865 7.81496 15.3829 7.32689 15.0184 6.96084ZM12.5282 18.7965C12.5282 18.9185 12.5282 19.0406 12.4675 19.1626C12.4675 19.2846 12.346 19.4066 12.2245 19.4676C12.103 19.5896 11.9816 19.6506 11.7993 19.6506C11.6171 19.6506 11.4957 19.6506 11.3742 19.6506H6.27223C6.02928 19.6506 5.78633 19.5896 5.60412 19.4676C5.36117 19.3456 5.17896 19.2236 5.05748 19.1016C4.81453 18.8575 4.69306 18.5525 4.63232 18.1864C4.57158 17.8204 4.57158 17.5153 4.57158 17.2103C4.57158 16.6002 4.63232 16.1732 4.75379 15.9291C4.87527 15.6851 4.93601 15.5021 4.99674 15.441C5.17896 15.136 5.48264 15.014 5.72559 14.953C6.02928 14.892 6.21149 14.892 6.33297 14.892H12.5282V18.7965Z" fill="#002266"/>
<path d="M33.2397 8.42516C32.8753 7.81508 32.4501 7.32701 32.025 6.96095C31.5391 6.5949 31.0532 6.35087 30.5673 6.10683C30.0206 5.92381 29.5347 5.80179 28.9881 5.74078C28.4414 5.67977 27.9555 5.61876 27.4089 5.61876H22.4892V0.25H18.7842V19.7118C18.7842 20.0778 18.8449 20.3829 18.9057 20.7489C18.9664 21.115 19.2093 21.481 19.513 21.7861C19.8775 22.1521 20.3026 22.3351 20.7885 22.3961C21.2137 22.4572 21.6996 22.5182 22.1855 22.5182H27.4696C27.9555 22.5182 28.4414 22.4572 28.9881 22.3961C29.5347 22.3351 30.0814 22.2131 30.5673 21.9691C31.1139 21.7861 31.5998 21.481 32.025 21.115C32.5109 20.7489 32.8753 20.2608 33.2397 19.7118C33.6041 19.1627 33.8471 18.4306 34.0293 17.5155C34.2115 16.6613 34.333 15.5022 34.333 14.099C34.333 13.0008 34.2722 11.9637 34.1508 10.9875C34.0293 10.1334 33.7256 9.21828 33.2397 8.42516ZM30.3243 16.8444C30.2028 17.3934 30.0814 17.7595 29.9599 18.0035C29.7777 18.4306 29.474 18.7356 29.1703 18.9797C28.8666 19.2237 28.5629 19.3457 28.2592 19.4677C27.9555 19.5898 27.6519 19.6508 27.2874 19.6508C26.9837 19.6508 26.6801 19.7118 26.4371 19.7118H23.7647C23.5824 19.7118 23.4002 19.7118 23.218 19.6508C23.0358 19.5897 22.9143 19.5287 22.7321 19.4067C22.6106 19.2237 22.4892 19.0407 22.4892 18.8576C22.4892 18.6746 22.4892 18.4916 22.4892 18.3086V8.54718H26.5586C26.8623 8.54718 27.1052 8.54718 27.4696 8.60819C27.7733 8.6692 28.1378 8.73021 28.4414 8.85222C28.7451 8.97424 29.0488 9.15727 29.2918 9.4013C29.5347 9.64534 29.7777 9.95038 29.9599 10.3164C30.0206 10.4384 30.1421 10.8045 30.2636 11.4146C30.4458 12.0247 30.5065 13.0008 30.5065 14.282C30.5673 15.5022 30.4458 16.2953 30.3243 16.8444Z" fill="#002266"/>
<path d="M61.1182 8.48606C60.8752 7.81496 60.5715 7.3269 60.2071 6.96084C59.8427 6.53378 59.3568 6.22874 58.6887 5.9847C58.0813 5.74067 57.4132 5.61865 56.6843 5.61865H47.1485V8.48606H55.4088C55.7125 8.48606 56.0162 8.54707 56.3199 8.60808C56.6236 8.66909 56.9273 8.91312 57.1702 9.21816C57.3524 9.4622 57.5346 9.76724 57.5954 10.0113C57.6561 10.2553 57.6561 10.5604 57.6561 10.8044V11.9636H50.3676C49.9425 11.9636 49.4566 12.0246 48.9099 12.0856C48.3633 12.2076 47.8166 12.4516 47.3307 12.9397C46.7234 13.4888 46.2982 14.0989 46.116 14.831C45.9338 15.5631 45.873 16.2952 45.873 17.0273C45.873 17.3323 45.873 17.6984 45.9338 18.1254C45.9338 18.5525 45.9945 18.9185 46.116 19.3456C46.2375 19.7727 46.3589 20.1997 46.5412 20.5658C46.7234 20.9318 47.0271 21.2979 47.3307 21.6029C47.8166 22.03 48.3025 22.274 48.8492 22.335C49.3958 22.396 49.8817 22.457 50.3676 22.457H58.4457C58.8709 22.457 59.2353 22.396 59.6605 22.335C60.0856 22.274 60.4501 22.091 60.7537 21.786C61.0574 21.4809 61.2396 21.1149 61.3004 20.6878C61.3611 20.2607 61.4219 19.8947 61.4219 19.5896V10.9264C61.4219 10.0113 61.3004 9.15716 61.1182 8.48606ZM57.7169 18.7965C57.7169 18.9185 57.7169 19.0406 57.6561 19.1626C57.6561 19.2846 57.5347 19.4066 57.4132 19.4676C57.2917 19.5896 57.1702 19.6506 56.988 19.6506C56.8058 19.6506 56.6843 19.6506 56.5629 19.6506H51.4002C51.1572 19.6506 50.9143 19.5896 50.732 19.4676C50.5498 19.3456 50.3069 19.2236 50.1854 19.1016C49.9425 18.8575 49.821 18.5525 49.7602 18.1864C49.6995 17.8204 49.6995 17.5153 49.6995 17.2103C49.6995 16.6002 49.7602 16.1732 49.8817 15.9291C50.0032 15.6851 50.0639 15.5021 50.1247 15.441C50.3069 15.136 50.6106 15.014 50.8535 14.953C51.1572 14.892 51.3394 14.892 51.4609 14.892H57.6561V18.7965H57.7169Z" fill="#002266"/>
<path d="M42.1681 5.67969C41.743 5.67969 41.3178 5.7407 40.8319 5.86271C40.4067 5.98473 39.9208 6.10675 39.4957 6.28977C39.0705 6.4728 38.6453 6.77784 38.2202 7.08289C37.4913 7.69297 37.0054 8.42508 36.8232 9.2792C36.5803 10.1333 36.5195 11.0485 36.5195 11.9636V22.4571H40.2245V13.0007C40.2245 12.3906 40.2853 11.7806 40.4067 11.1705C40.5282 10.6214 40.7712 10.0723 41.0748 9.64525C41.5 9.09617 42.0466 8.79113 42.654 8.66911C43.2614 8.5471 43.808 8.48609 44.2939 8.48609H45.8731V5.67969H43.2614C42.9577 5.67969 42.5325 5.67969 42.1681 5.67969Z" fill="#002266"/>
</svg>
