<svg width="113" height="23" viewBox="0 0 113 23" fill="none" xmlns="http://www.w3.org/2000/svg">
<path fill-rule="evenodd" clip-rule="evenodd" d="M0.957764 22.5105V18.4942H1.59582V22.6387H0.957764V22.5105ZM5.80698 22.5105V18.1523L6.01967 18.4087L8.74204 21.4423V18.5369H9.33756V22.9805L9.12487 22.7241L6.4025 19.6905V22.6387H5.80698V22.5105ZM13.6763 22.5105V18.4942H14.995C15.2077 18.4942 15.4204 18.4942 15.633 18.5369C15.8457 18.5796 16.0159 18.6223 16.1435 18.7078C16.3136 18.7932 16.4412 18.8787 16.5689 19.0069C16.6965 19.1351 16.7815 19.2632 16.8666 19.4342C16.9517 19.6051 16.9942 19.776 17.0368 19.9469C17.0793 20.1178 17.0793 20.3314 17.0793 20.5451C17.0793 20.9296 17.0368 21.2287 16.9517 21.485C16.8666 21.7414 16.6965 21.955 16.4838 22.126C16.2711 22.2969 16.0584 22.425 15.8032 22.4678C15.548 22.5532 15.2502 22.5959 14.9524 22.5959H13.6763V22.5105ZM14.7823 19.0069H14.2719V22.0832H14.8248C15.0375 22.0832 15.2502 22.0832 15.4204 22.0405C15.5905 21.9978 15.7181 21.955 15.8457 21.8696C15.9733 21.7841 16.0584 21.6987 16.1435 21.6132C16.2286 21.5278 16.2711 21.4423 16.3136 21.3141C16.3562 21.186 16.3987 21.0578 16.3987 20.9296C16.3987 20.8014 16.4412 20.6732 16.4412 20.5023C16.4412 20.2887 16.3987 20.0751 16.3562 19.8614C16.3136 19.6905 16.2286 19.5196 16.1009 19.3487C16.0159 19.2205 15.8457 19.1351 15.6756 19.0496C15.4629 18.9642 15.1651 18.9214 14.8248 18.9214L14.7823 19.0069ZM21.4606 18.4942H21.9711V21.186C21.9711 21.3569 22.0136 21.485 22.0561 21.6132C22.0987 21.7414 22.1837 21.8269 22.2688 21.955C22.3539 22.0405 22.439 22.126 22.5666 22.1687C22.6942 22.2114 22.8218 22.2541 23.0345 22.2541C23.2472 22.2541 23.3748 22.2114 23.5024 22.1687C23.63 22.126 23.7151 22.0832 23.8001 21.9978C23.8852 21.9123 23.9278 21.8269 23.9703 21.6987C24.0128 21.5705 24.0128 21.3996 24.0128 21.2287V18.5369H24.6509V21.1005C24.6509 21.3996 24.6084 21.6132 24.5658 21.8269C24.4807 22.0405 24.3957 22.2114 24.2681 22.3396C24.1404 22.4678 23.9703 22.5959 23.7576 22.6387C23.5449 22.7241 23.3322 22.7241 23.0345 22.7241C22.7793 22.7241 22.524 22.6814 22.3114 22.5959C22.0987 22.5105 21.9285 22.425 21.8009 22.2541C21.6733 22.126 21.5457 21.9123 21.5031 21.7414C21.4181 21.5278 21.4181 21.3141 21.4181 21.0578V18.4942H21.4606ZM28.777 21.7841L29.1173 21.6132L29.2449 21.5705L29.2874 21.6987C29.33 21.8696 29.4576 22.0405 29.5426 22.126C29.6703 22.2114 29.7979 22.2541 30.0106 22.2541C30.2232 22.2541 30.3934 22.2114 30.521 22.0832C30.6061 22.0405 30.6486 21.955 30.6486 21.8696C30.6911 21.7841 30.6911 21.656 30.6911 21.5705C30.6911 21.4423 30.6911 21.3569 30.6486 21.2714C30.6061 21.186 30.5635 21.1005 30.4785 21.0578C30.4785 21.0578 30.3934 21.0151 30.3508 20.9723C30.2658 20.9296 30.1807 20.8869 30.0531 20.8014C29.9255 20.716 29.7979 20.6732 29.7128 20.6305C29.6277 20.5878 29.5426 20.5451 29.5001 20.5023C29.415 20.4596 29.33 20.3741 29.2449 20.3314C29.1598 20.246 29.1173 20.2032 29.0322 20.1178C28.9897 20.0323 28.9471 19.9469 28.9046 19.8614C28.8621 19.776 28.8621 19.6905 28.8621 19.5623C28.8621 19.3914 28.9046 19.2632 28.9471 19.1351C28.9897 19.0069 29.0747 18.8787 29.2024 18.7932C29.33 18.7078 29.4576 18.6223 29.5852 18.5796C29.7128 18.5369 29.8829 18.4942 30.0531 18.4942C30.1382 18.4942 30.2658 18.4942 30.3508 18.5369C30.4359 18.5369 30.521 18.5796 30.6061 18.6223C30.6911 18.6651 30.7762 18.7078 30.8613 18.7932C30.9464 18.8787 31.0314 18.9642 31.074 19.0923L31.1165 19.1778L31.0314 19.2205L30.7337 19.3914L30.6486 19.4342L30.6061 19.3487C30.5635 19.2632 30.4785 19.1778 30.3934 19.1351C30.3083 19.0923 30.1807 19.0496 30.0531 19.0496C29.968 19.0496 29.9255 19.0496 29.8404 19.0923C29.7979 19.1351 29.7128 19.1351 29.6703 19.1778C29.6277 19.2205 29.5852 19.2632 29.5426 19.3487C29.5001 19.4342 29.5001 19.4769 29.5001 19.5623C29.5001 19.6905 29.5426 19.776 29.5852 19.8614C29.6703 19.9469 29.7553 20.0323 29.8829 20.1178L30.1807 20.246C30.2658 20.2887 30.3508 20.3314 30.3934 20.3741C30.4359 20.4169 30.521 20.4169 30.5635 20.4596C30.6061 20.5023 30.6486 20.5023 30.6911 20.5451C30.9038 20.6732 31.0314 20.8014 31.1591 20.9723C31.2441 21.1432 31.3292 21.3569 31.3292 21.5705C31.3292 21.656 31.3292 21.7841 31.2867 21.8696C31.2441 21.955 31.2441 22.0832 31.2016 22.1687C31.1591 22.2541 31.1165 22.3396 31.0314 22.425C30.9464 22.5105 30.8613 22.5959 30.7762 22.6387C30.6911 22.6814 30.5635 22.7669 30.4359 22.7669C30.3083 22.8096 30.1807 22.8096 30.0106 22.8096C29.8829 22.8096 29.7553 22.8096 29.6277 22.7669C29.5001 22.7241 29.415 22.6814 29.2874 22.6387C29.1598 22.5959 29.0747 22.5105 28.9897 22.3823C28.9046 22.2541 28.8195 22.126 28.7344 21.955L28.6919 21.8696L28.777 21.7841ZM36.3911 22.5105V19.0496H35.2426V18.4942H38.1777V19.0496H37.0292V22.6387H36.3911V22.5105ZM44.9411 22.6387H44.4306L44.3881 22.5959L42.9418 20.8014H42.8993V22.6814H42.2612V18.5369H43.1545C43.6224 18.5369 44.0052 18.6223 44.2179 18.836C44.4731 19.0496 44.6008 19.3487 44.6008 19.7332C44.6008 20.1178 44.4731 20.3741 44.2179 20.5451C44.0478 20.6732 43.8351 20.7587 43.6224 20.8014L44.9836 22.5105L45.1112 22.6814H44.9411V22.6387ZM43.112 20.246C43.2821 20.246 43.4097 20.246 43.5373 20.2032C43.6649 20.2032 43.75 20.1605 43.8351 20.1178C43.9202 20.0751 43.9627 20.0323 44.0052 19.9469C44.0478 19.8614 44.0478 19.776 44.0478 19.6478C44.0478 19.5196 44.0478 19.4342 44.0052 19.3487C43.9627 19.2632 43.9202 19.2205 43.8776 19.1778C43.7926 19.1351 43.7075 19.0923 43.6224 19.0923C43.4948 19.0496 43.3672 19.0496 43.197 19.0496H43.0269V20.2887H43.112V20.246ZM49.2798 22.5105V18.4942H49.9179V22.6387H49.2798V22.5105ZM54.2141 22.5105V18.4942H56.5111V19.0496H54.8522V20.0323H56.5111V20.5878H54.8522V22.0405H56.5111V22.5959H54.2141V22.5105ZM61.6581 22.5105V19.0496H60.5096V18.4942H63.4021V19.0496H62.2536V22.6387H61.6156V22.5105H61.6581ZM67.5282 22.5105V18.4942H69.8252V19.0496H68.1663V20.0323H69.8252V20.5878H68.1663V22.0405H69.8252V22.5959H67.5282V22.5105ZM76.2908 18.9642C76.1207 18.9642 75.9505 18.9642 75.8229 19.0069C75.6953 19.0496 75.5252 19.0923 75.3976 19.1778C75.27 19.2205 75.1849 19.306 75.0573 19.4342C74.9722 19.5196 74.8871 19.6478 74.802 19.7332C74.717 19.8614 74.6744 19.9896 74.6319 20.1178C74.5894 20.246 74.5894 20.4169 74.5894 20.5878C74.5894 21.1005 74.7595 21.485 75.0573 21.7841C75.2274 21.9123 75.3976 22.0405 75.5677 22.126C75.7804 22.2114 75.9931 22.2541 76.2483 22.2541C76.461 22.2541 76.6737 22.2114 76.8864 22.126C77.099 22.0405 77.3117 21.955 77.5244 21.7841L77.7371 21.6132V21.8269V22.2541V22.2969L77.6946 22.3396C77.6095 22.3823 77.4819 22.4678 77.3968 22.5105C77.2692 22.5532 77.1841 22.5959 77.0565 22.6387C76.9289 22.6814 76.8013 22.6814 76.6737 22.7241C76.5461 22.7241 76.4185 22.7669 76.2908 22.7669C76.1207 22.7669 75.9505 22.7669 75.7804 22.7241C75.6102 22.6814 75.4401 22.6387 75.27 22.5959C75.0998 22.5532 74.9297 22.4678 74.802 22.3396C74.6744 22.2114 74.5043 22.0832 74.4192 21.955C74.2916 21.7841 74.2065 21.6132 74.1215 21.3996C74.0789 21.186 74.0364 20.9296 74.0364 20.6732C74.0364 20.4596 74.0364 20.2887 74.0789 20.1178C74.1215 19.9469 74.164 19.776 74.2491 19.6051C74.3341 19.4342 74.4192 19.306 74.5468 19.1351C74.6744 19.0069 74.8446 18.8787 75.0147 18.7932C75.1849 18.7078 75.3976 18.6223 75.6102 18.5796C75.8229 18.5369 76.0782 18.4942 76.3334 18.4942C76.5886 18.4942 76.8013 18.5369 77.0565 18.6223C77.2692 18.7078 77.5244 18.7932 77.7371 18.9642L77.7796 19.0069V19.0496V19.4342V19.6905L77.6095 19.5196C77.5244 19.4769 77.4393 19.3914 77.3543 19.3487C77.2692 19.306 77.1841 19.2632 77.0565 19.1778C76.9714 19.1351 76.8438 19.0923 76.7162 19.0923C76.5886 18.9642 76.461 18.9642 76.2908 18.9642ZM82.1184 22.5105V18.4942H82.7565V20.0751H84.7557V18.4942H85.3938V22.6387H84.7557V20.6305H82.7565V22.6387H82.1184V22.5105ZM89.7325 22.5105V18.1523L89.9452 18.4087L92.6676 21.4423V18.5369H93.2631V22.9805L93.0504 22.7241L90.3281 19.6905V22.6387H89.7325V22.5105ZM97.5594 22.5105V18.4942H98.1974V22.6387H97.5594V22.5105ZM102.451 22.5105V18.4942H104.748V19.0496H103.089V20.0323H104.748V20.5878H103.089V22.0405H104.748V22.5959H102.451V22.5105ZM109.087 22.5105V18.4942H109.725V20.1605L111.384 18.5369L111.426 18.4942H112.235L112.022 18.6651L110.15 20.4596L112.15 22.425L112.362 22.5959H111.469L111.426 22.5532L109.725 20.8014V22.5959H109.087V22.5105Z" fill="black"/>
<path fill-rule="evenodd" clip-rule="evenodd" d="M0.745117 14.9053H7.89134C9.29506 14.9053 10.4861 14.7344 11.4219 14.3499C12.3577 14.0081 13.1659 13.4526 13.8891 12.8117C14.6122 12.1281 15.1652 11.359 15.5905 10.4617C16.0159 9.56447 16.3562 8.62448 16.5264 7.59903C16.8241 6.01814 16.9092 4.82178 16.6965 3.96724C16.4838 3.1127 16.101 2.38635 15.548 1.78817C14.995 1.18999 14.357 0.80545 13.6338 0.634542C12.6555 0.378181 11.7197 0.25 10.8689 0.25H3.72271L0.745117 14.9053ZM6.23239 11.5726L7.8488 3.5827H9.03984C10.0607 3.5827 10.7413 3.66815 11.1242 3.88179C11.507 4.09542 11.7622 4.47997 11.8898 4.99269C12.0174 5.50541 11.9749 6.35995 11.7197 7.5563C11.4219 9.09447 10.9115 10.1626 10.2734 10.7608C9.63536 11.3163 8.65701 11.6154 7.42343 11.6154H6.23239V11.5726Z" fill="#98C342"/>
<path fill-rule="evenodd" clip-rule="evenodd" d="M19.6316 0.25H32.5204L31.8823 3.36907H23.8003L23.3324 5.71905H30.8189L30.2234 8.70993H22.7368L22.1413 11.5726H30.436L29.798 14.9053H16.6541L19.6316 0.25Z" fill="#98C342"/>
<path fill-rule="evenodd" clip-rule="evenodd" d="M34.9449 0.335449H43.8777C45.3665 0.335449 46.4299 0.677265 47.1105 1.3609C47.7485 2.04453 48.0037 2.89906 47.7911 3.92451C47.6209 4.77905 47.1955 5.50541 46.4724 6.14631C46.0045 6.57358 45.409 6.87267 44.6008 7.12903C45.6642 7.38539 46.3873 7.81266 46.7702 8.41084C47.153 9.00901 47.2806 9.7781 47.0679 10.7181C46.8978 11.4872 46.6 12.1708 46.0896 12.769C45.5791 13.3672 44.9836 13.8372 44.2605 14.179C43.8351 14.3926 43.1971 14.5635 42.3463 14.649C41.2404 14.7771 40.5172 14.8626 40.1769 14.8626H31.9673L34.9449 0.335449ZM38.6031 6.06086H40.6874C41.453 6.06086 41.9635 5.93268 42.3038 5.71904C42.6441 5.46268 42.8568 5.12086 42.9418 4.6936C43.0269 4.26633 42.9418 3.92451 42.6866 3.71088C42.4314 3.45451 41.9635 3.36906 41.2404 3.36906H39.1135L38.6031 6.06086ZM37.412 11.7435H39.8792C40.6874 11.7435 41.3254 11.6154 41.7083 11.3163C42.0911 11.0599 42.3463 10.6754 42.4314 10.2054C42.5165 9.7781 42.4314 9.43628 42.1336 9.17992C41.8359 8.92356 41.2829 8.79538 40.4747 8.79538H38.0501L37.412 11.7435Z" fill="black"/>
<path fill-rule="evenodd" clip-rule="evenodd" d="M51.7044 0.335449H64.4655L63.8275 3.45451H55.8305L55.3626 5.76177H62.8066L62.2111 8.70993H54.7671L54.1715 11.5726H62.4237L61.7431 14.8626H48.7268L51.7044 0.335449Z" fill="black"/>
<path fill-rule="evenodd" clip-rule="evenodd" d="M66.082 0.335449H71.0163L72.335 10.6754L77.8223 0.335449H82.6289L74.0365 14.6917H68.932L66.082 0.335449Z" fill="black"/>
<path fill-rule="evenodd" clip-rule="evenodd" d="M84.2029 0.335449H96.8364L96.1983 3.41179H88.2864L87.8185 5.67632H95.1774L94.5819 8.62447H87.223L86.67 11.4445H94.7946L94.1565 14.6917H81.2678L84.2029 0.335449Z" fill="black"/>
<path fill-rule="evenodd" clip-rule="evenodd" d="M96.7512 14.6919L99.6863 0.292969H107.556C109.002 0.292969 110.108 0.421149 110.831 0.634784C111.554 0.848419 112.107 1.31841 112.447 1.95932C112.788 2.60022 112.873 3.36931 112.703 4.26657C112.532 5.07838 112.235 5.76201 111.724 6.31746C111.256 6.91564 110.661 7.38564 109.938 7.72745C109.47 7.94109 108.874 8.15472 108.151 8.2829C108.662 8.45381 109.044 8.62472 109.257 8.79562C109.385 8.92381 109.597 9.18017 109.853 9.56471C110.108 9.94925 110.278 10.2483 110.321 10.462L111.767 14.6492H106.45L104.833 10.2483C104.621 9.69289 104.408 9.30835 104.195 9.13744C103.897 8.9238 103.557 8.79562 103.089 8.79562H102.664L101.473 14.6492H96.7512V14.6919ZM103.217 6.14656H105.216C105.429 6.14656 105.854 6.0611 106.492 5.93292C106.832 5.89019 107.088 5.71929 107.343 5.46292C107.598 5.20656 107.726 4.9502 107.811 4.60839C107.896 4.13839 107.811 3.79658 107.556 3.54021C107.3 3.28385 106.747 3.15567 105.854 3.15567H103.77L103.217 6.14656Z" fill="black"/>
</svg>
