<svg width="103" height="64" viewBox="0 0 103 64" fill="none" xmlns="http://www.w3.org/2000/svg">
<path d="M15.0386 0.83331C15.7229 0.175617 16.8257 0.286881 17.5493 0.816002C18.8786 1.73825 20.3358 2.83606 20.705 4.51243C20.9069 5.9465 20.7937 7.41765 20.4441 8.81957C19.9567 10.8767 19.5481 12.9536 19.041 15.0083C18.6817 14.1973 18.4453 13.285 17.8078 12.6396C17.4287 12.1946 16.6583 12.2267 16.3038 12.6891C15.7426 13.3344 15.5407 14.1998 15.3118 15.0058C14.9155 16.566 14.5044 18.1237 14.1623 19.6987C15.4152 20.3465 16.6607 21.0091 17.8989 21.6817C17.217 24.8959 16.5401 28.1102 15.9223 31.3344C14.5832 31.1317 13.249 30.9141 11.9149 30.6841C9.83735 40.955 7.99365 51.2753 5.88658 61.5413C4.07981 62.11 2.31735 62.8171 0.471191 63.2498C2.46504 52.0443 4.97827 40.9402 7.04842 29.7495C6.15734 29.4479 5.26381 29.1487 4.37027 28.8569C5.15796 24.6709 5.98996 20.4924 6.86135 16.3237C7.65396 16.6476 8.44165 16.9937 9.22196 17.3498C9.96781 13.4308 10.7801 9.50941 12.1832 5.766C12.8626 3.99073 13.606 2.1388 15.0386 0.83331Z" fill="#17981A"/>
<path d="M58.9253 4.27521C59.3437 3.51614 60.0477 2.73235 60.9856 2.76696C61.8053 2.69031 62.913 3.18977 62.8908 4.13922C62.9597 7.62054 62.6151 11.092 62.4773 14.5683C62.1179 14.0466 61.7216 13.2579 60.9462 13.4557C60.1388 13.7821 59.9739 14.7785 59.8533 15.5425C59.6243 17.6071 59.4939 19.684 59.4077 21.7585C60.2446 21.6472 61.089 21.6398 61.9333 21.6472C61.724 25.3609 61.5074 29.0722 61.2736 32.7859C60.38 32.8057 59.489 32.87 58.5979 32.9318C58.0145 42.812 57.3597 52.6898 56.8871 62.5774C56.8354 62.9631 56.9117 63.3934 56.7148 63.7494C55.6637 63.8458 54.5905 63.6208 53.5566 63.4107C54.204 53.2634 54.9597 43.1186 55.4274 32.959C54.9622 32.9813 54.4969 33.0109 54.0342 33.0406C54.2237 29.4455 54.4329 25.8505 54.7086 22.2604C55.2034 22.1763 55.6982 22.0947 56.193 22.0181C56.225 19.2736 56.4883 16.534 56.732 13.7994C57.116 10.5678 57.4065 7.21257 58.9253 4.27521Z" fill="#17981A"/>
<path d="M18.2387 30.3453C19.9027 22.1192 21.286 13.8387 23.0165 5.62744C24.1808 6.30986 25.3328 7.01453 26.4922 7.70684C25.4657 12.8546 24.6042 18.0346 23.6885 23.2022C21.7119 34.3335 19.7402 45.4648 17.6405 56.5739C17.515 57.2068 17.4214 57.8472 17.2442 58.4678C15.8608 58.9871 14.3642 59.1527 12.939 59.5384C14.7014 49.8066 16.5993 40.0994 18.2387 30.3453Z" fill="#17981A"/>
<path d="M51.1075 9.54138C51.4472 8.07022 51.8657 6.47544 53.0399 5.43945C53.8349 6.47791 53.9236 7.82297 53.9876 9.07901C54.054 11.4032 53.9359 13.7397 53.5149 16.0293C53.2934 17.2062 52.8429 18.4895 51.7205 19.0829C51.2798 18.4177 50.9278 17.6859 50.8417 16.8823C50.5192 14.4444 50.6817 11.957 51.1075 9.54138Z" fill="#17981A"/>
<path d="M67.7031 21.0661C68.2225 20.7101 68.8847 20.8634 69.3671 21.2046C70.2804 21.8672 70.8884 22.8686 71.2871 23.912C72.1511 26.2164 72.6238 28.6518 72.8724 31.0972C73.4656 36.9472 73.0816 42.8466 72.4096 48.6719C71.7573 52.8159 70.9721 57.0785 68.8034 60.7304C68.0108 61.8703 67.0361 63.2079 65.5321 63.3192C64.2225 63.2648 63.4545 62.0087 63.0434 60.9084C61.8004 57.1255 61.532 53.1126 61.3893 49.159C61.3573 43.1804 61.7413 37.1722 62.8884 31.2975C63.4422 28.5529 64.0305 25.7417 65.4976 23.3236C66.0637 22.4334 66.7874 21.6002 67.7031 21.0661ZM67.2379 31.6856C66.5807 32.4274 66.3493 33.4189 66.081 34.3486C65.0791 38.3837 64.4736 42.5499 64.673 46.7161C64.8207 48.5211 64.9117 50.4027 65.6674 52.0741C66.1031 52.9172 67.1985 52.4524 67.5751 51.8046C68.5721 50.2914 68.865 48.4345 69.1702 46.679C69.6724 42.5821 69.9382 38.4159 69.3598 34.3115C69.2219 33.4733 69.0545 32.6005 68.5573 31.8933C68.2791 31.5002 67.5801 31.2678 67.2379 31.6856Z" fill="#17981A"/>
<path d="M77.1432 22.3913C78.2731 21.7583 79.7279 21.249 80.9537 21.9191C82.63 22.7325 83.2208 24.6858 83.6466 26.3622C84.2522 29.3713 84.2916 32.4718 84.1586 35.5278C84.0257 43.0888 83.8633 50.6498 83.9149 58.2133C82.7531 58.3987 81.5814 58.468 80.4146 58.604C80.3728 58.0748 80.3334 57.5432 80.3063 57.0141C79.6491 58.1886 78.7408 59.6548 77.2196 59.6226C76.0823 59.7438 75.3537 58.6781 74.982 57.7485C74.0417 55.3427 73.9999 52.6971 74.0319 50.1479C73.9654 48.6842 74.0983 47.2229 74.1894 45.7641C74.4282 43.3213 74.5956 40.8463 75.2996 38.4825C75.7968 37.0608 76.4417 35.5081 77.8374 34.7589C78.8589 34.1383 80.1316 34.4696 81.0694 35.0952C81.0202 33.5968 80.8626 32.0218 80.0848 30.7064C79.6836 29.9894 78.7679 29.5963 77.99 29.888C76.9783 30.1699 76.39 31.1243 75.8017 31.9155C75.9568 29.082 76.1291 26.2509 76.2349 23.4149C76.2399 22.8957 76.7716 22.641 77.1432 22.3913ZM79.0312 42.0158C77.9974 42.7946 77.6971 44.1693 77.4879 45.3809C77.3057 46.9089 77.2712 48.5432 77.9014 49.9798C78.1771 50.6993 79.2552 50.7883 79.6688 50.1528C80.9045 48.4468 80.8405 46.2116 80.7814 44.2015C80.6977 43.4647 80.6805 42.577 80.0577 42.0702C79.7919 41.7561 79.3414 41.7883 79.0312 42.0158Z" fill="#17981A"/>
<path d="M50.2115 23.0317C51.1592 22.8042 52.1094 22.5866 53.062 22.3789C52.2448 35.9234 51.1838 49.4531 50.342 62.9951C49.3869 62.874 48.4466 62.6811 47.5137 62.4437C47.7451 57.5926 48.1537 52.7514 48.4392 47.9053C48.9069 39.605 49.5666 31.3171 50.2115 23.0317Z" fill="#17981A"/>
<path d="M45.1727 23.7784C46.2189 23.5509 47.265 23.3284 48.3136 23.1108C46.9573 28.6246 45.5198 34.1136 44.193 39.6347C43.9592 40.4878 43.9912 41.3779 44.0773 42.2482C44.6903 48.8548 45.2712 55.4663 45.8004 62.0803C44.6755 61.8158 43.5456 61.5784 42.4207 61.3089C42.0367 57.7015 41.7586 54.0817 41.3475 50.4768C40.2103 53.6194 39.169 56.7941 38.0416 59.9416C36.7518 59.7611 35.4989 59.4125 34.2336 59.1183C35.8115 53.4092 37.7069 47.7965 39.5063 42.1542C39.7106 41.4347 40.0699 40.7177 39.9789 39.9487C39.5949 34.8652 39.2724 29.7768 38.977 24.6883C40.0109 24.5177 41.0398 24.3174 42.0761 24.1617C42.3592 26.7578 42.5512 29.3639 42.8687 31.9575C43.6663 29.2378 44.4539 26.518 45.1727 23.7784Z" fill="#17981A"/>
<path d="M26.8933 28.7776C27.9247 26.8367 29.0767 24.6361 31.2379 23.7955C32.7863 23.2836 34.0761 24.6856 34.5364 26.0257C35.3709 28.3573 35.4496 30.8792 35.4816 33.332C35.361 36.2916 35.297 39.2611 34.9204 42.2034C32.4293 42.2009 29.9506 41.9413 27.4644 41.8573C27.3143 44.1691 27.1099 46.6391 28.1044 48.8001C28.5007 49.7446 29.6084 50.338 30.6004 50.0215C32.1069 49.5345 33.0693 48.1894 34.1499 47.1188C33.8595 50.3875 33.3696 53.6339 33.0004 56.8927C31.6539 58.4182 29.5567 59.5334 27.4939 59.0042C26.1598 58.7916 25.1407 57.7878 24.4244 56.7023C23.3044 55.0803 22.9869 53.0825 22.8687 51.154C22.0515 43.504 23.6663 35.713 26.8933 28.7776ZM29.9998 31.1364C29.1432 32.2787 28.7666 33.6955 28.5032 35.0801C29.7438 35.1765 30.9869 35.1889 32.2299 35.1592C32.1684 33.7993 32.449 32.2911 31.6983 31.0696C31.297 30.4317 30.401 30.5825 29.9998 31.1364Z" fill="#17981A"/>
<path d="M86.6498 23.7686C87.7501 24.2532 88.8258 24.7897 89.8916 25.351C89.8842 25.7762 89.8793 26.204 89.8744 26.6293C90.6251 26.1224 91.6098 25.6378 92.4762 26.1867C94.2264 27.24 94.7162 29.3911 95.275 31.2133C96.0578 30.6422 97.1187 30.1279 98.0368 30.7262C99.6737 31.7845 100.407 33.7328 100.966 35.518C102.416 40.4235 102.576 45.5812 102.896 50.6523C102.901 54.9768 102.977 59.3087 102.647 63.6257C101.663 62.7356 100.636 61.8925 99.5039 61.2001C99.4867 55.7903 99.5408 50.3804 99.3784 44.9754C99.2405 42.9974 99.3907 40.9576 98.7654 39.0488C98.5857 38.4603 98.0417 37.9708 97.4042 38.0375C96.4368 38.035 96.0774 39.2144 96.1119 40.0155C96.171 41.5905 95.9371 43.1631 96.0873 44.7356C96.2054 48.1897 95.9716 51.6537 96.2054 55.1054C96.2719 56.673 96.1217 58.2331 96.0799 59.7982C95.019 59.3631 93.9458 58.96 92.8578 58.604C92.9488 56.6062 92.7421 54.6133 92.7864 52.618C92.7888 47.3466 92.7938 42.0751 92.7938 36.8037C92.7494 36.0249 92.6461 35.0655 91.9027 34.6304C91.3636 34.2595 90.5685 34.5339 90.3174 35.1224C89.8473 36.0966 89.8891 37.2142 89.8251 38.2699C89.6085 44.8864 89.5051 51.5029 89.3328 58.1194C88.2793 58.1441 87.2282 57.9982 86.1771 58.112C86.1205 53.1496 86.3027 48.1947 86.315 43.2348C86.5021 41.0936 86.3174 38.9449 86.475 36.8037C86.4405 32.4545 86.6768 28.1153 86.6498 23.7686Z" fill="#17981A"/>
</svg>
