<svg width="140" height="45" viewBox="0 0 140 45" fill="none" xmlns="http://www.w3.org/2000/svg">
<path d="M128.255 12.2365C128.255 10.2646 128.16 9.0054 127.922 8.45896C127.708 7.91253 127.257 7.65119 126.592 7.65119C126.022 7.65119 125.57 7.86501 125.285 8.31642C124.976 8.74406 124.834 10.0508 124.834 12.2365V31.9557C124.834 34.4028 124.929 35.9233 125.143 36.4935C125.333 37.0637 125.808 37.3488 126.544 37.3488C127.281 37.3488 127.756 37.0162 127.97 36.351C128.184 35.6857 128.279 34.1177 128.279 31.6231L128.255 12.2365ZM139.231 26.1112C139.231 30.3639 139.136 33.3575 138.946 35.1156C138.732 36.8974 138.114 38.4892 137.069 39.9622C136.024 41.4114 134.598 42.5518 132.816 43.3359C131.035 44.1199 128.944 44.5 126.568 44.5C124.311 44.5 122.268 44.1199 120.486 43.3834C118.68 42.6469 117.231 41.5302 116.138 40.0572C115.045 38.5842 114.404 36.9687 114.19 35.2343C113.976 33.5 113.881 30.4352 113.881 26.1112V18.8888C113.881 14.6361 113.976 11.6425 114.19 9.86069C114.38 8.10259 114.998 6.48704 116.067 5.0378C117.112 3.58855 118.538 2.44816 120.32 1.66415C122.101 0.88013 124.192 0.5 126.568 0.5C128.825 0.5 130.868 0.88013 132.65 1.61663C134.456 2.35313 135.905 3.46976 136.998 4.94276C138.091 6.41577 138.732 8.03132 138.946 9.76566C139.16 11.5 139.255 14.541 139.255 18.8888L139.231 26.1112ZM112.598 1.37905L106.302 20.433L113.192 43.5972H101.86L97.4168 25.4935V43.5972H86.4406V1.37905H97.4168V17.7959L102.287 1.37905H112.598ZM82.0453 1.37905V43.5972H72.4233L66.6976 24.4006V43.5972H57.527V1.37905H66.6976L72.851 20.3855V1.37905H82.0453ZM43.5572 28.5346C42.987 23.7592 42.4406 17.8434 41.8941 10.811C40.7775 18.8888 40.0885 24.7808 39.8034 28.5346H43.5572ZM49.3542 1.37905L55.6501 43.5972H44.4125L43.8661 35.9946H39.9222L39.2808 43.5972H27.9244L33.5075 1.37905H49.3542ZM26 1.37905V43.5972H15.0237V25.8737H11.7451V43.5972H0.745117V1.37905H11.7214V16.4654H15V1.37905H26Z" fill="#00B0BD"/>
</svg>
