<svg width="113" height="23" viewBox="0 0 113 23" fill="none" xmlns="http://www.w3.org/2000/svg">
<path fill-rule="evenodd" clip-rule="evenodd" d="M0.745117 0.25H112.745V22.9881H0.745117V0.25Z" fill="#FDC300"/>
<path fill-rule="evenodd" clip-rule="evenodd" d="M2.87842 20.8453L15.4414 2.43262H21.5253V12.7104L28.2019 2.43262H34.9179V20.8453H28.2019V11.3215L21.5253 20.8453H15.7574V11.639L10.5031 20.8453H2.87842Z" fill="#1D1D1B"/>
<path fill-rule="evenodd" clip-rule="evenodd" d="M36.7747 2.43262H43.9253V20.8453H36.7747V2.43262Z" fill="#1D1D1B"/>
<path fill-rule="evenodd" clip-rule="evenodd" d="M51.5896 7.3931V12.1153H55.6587C55.6587 12.1153 58.2266 11.9566 58.2266 9.61532C58.2266 7.3931 55.6587 7.3931 55.6587 7.3931H51.5896ZM45.9402 2.43278H56.9624C56.9624 2.43278 63.6389 1.4804 63.6389 9.02008C63.6389 16.2026 60.2414 15.8852 60.2414 15.8852L64.113 20.8852H56.8439L54.513 16.4804H51.6291V20.8852H45.9797V2.43278H45.9402Z" fill="#1D1D1B"/>
<path fill-rule="evenodd" clip-rule="evenodd" d="M65.2192 2.43262V20.8453H71.4217V13.504L76.5575 20.8453H84.4983L77.1896 11.4802L84.0242 2.43262H76.3995L71.4217 9.93262V2.43262H65.2192Z" fill="#1D1D1B"/>
<path fill-rule="evenodd" clip-rule="evenodd" d="M91.5697 7.2342V13.504H96.3104L91.5697 7.2342ZM85.4462 2.43262H95.4018L110.612 20.885H102.552L100.024 18.3453H91.5697V20.885H85.4067V2.43262H85.4462Z" fill="#1D1D1B"/>
</svg>
