<svg width="113" height="48" viewBox="0 0 113 48" fill="none" xmlns="http://www.w3.org/2000/svg">
<path d="M97.5902 46.3423H0.745117V47.1628H97.5902V46.3423Z" fill="#646363"/>
<path d="M61.6746 39.2404H60.0972V38.3066H64.1817V39.2404H62.6887V44.2202H61.6746V39.2404Z" fill="#646363"/>
<path d="M65.9565 41.1924H63.9001V42.1827H65.9565V41.1924Z" fill="#646363"/>
<path d="M69.0549 41.1926H72.6887V41.3058C72.6887 43.0035 71.3084 44.3333 69.7873 44.3333C68.1535 44.3333 66.7732 43.0035 66.7732 41.2492C66.7732 39.4949 68.1253 38.1934 69.7591 38.1934C71.1394 38.1934 72.1253 39.1837 72.407 40.0608H71.1957C70.9704 39.6364 70.4633 39.212 69.7309 39.212C68.4352 39.212 67.7873 40.3721 67.7873 41.2775C67.7873 42.2112 68.407 43.3147 69.7873 43.3147C70.4633 43.3147 71.0831 42.9186 71.3929 42.1829H69.0267V41.1926H69.0549Z" fill="#646363"/>
<path d="M80.8578 41.504H81.6747C82.6043 41.504 82.6325 42.1831 82.6325 42.4377C82.6325 43.0319 82.0973 43.2017 81.6466 43.2017H80.8297V41.504H80.8578ZM79.8438 44.2203H81.5902C81.9846 44.2203 82.6325 44.192 83.055 43.8524C83.3931 43.5978 83.7311 43.1734 83.7311 42.466C83.7311 41.4474 83.1677 41.1361 82.8015 40.9947C82.9705 40.8815 83.4212 40.6268 83.4212 39.8629C83.4212 39.4385 83.224 39.0423 82.9705 38.7877C82.4916 38.335 81.8438 38.335 81.224 38.335H79.9001V44.2203H79.8438ZM80.8578 39.2404H81.5621C82.2099 39.2404 82.4071 39.5233 82.4071 39.8912C82.4071 40.5137 81.7311 40.5137 81.4776 40.5137H80.886V39.2404H80.8578Z" fill="#646363"/>
<path d="M90.6324 38.3066H89.562V44.2202H90.6324V38.3066Z" fill="#646363"/>
<path d="M76.2098 38.1934C74.5479 38.1934 73.1394 39.5515 73.1394 41.2492C73.1394 42.9469 74.5479 44.3333 76.2098 44.3333C77.9563 44.3333 79.2802 42.9469 79.2802 41.2492C79.2802 39.5515 77.9563 38.1934 76.2098 38.1934ZM76.2098 43.2864C75.1112 43.2864 74.2098 42.381 74.2098 41.2492C74.2098 40.1457 75.1112 39.212 76.2098 39.212C77.3366 39.212 78.2943 40.1457 78.2943 41.2492C78.2943 42.381 77.3366 43.2864 76.2098 43.2864Z" fill="#646363"/>
<path d="M83.6748 44.2202L86.0128 38.3066H86.8297L89.1114 44.2202H88.041L87.5058 42.7206H85.3086L84.7452 44.2202H83.6748ZM86.4072 39.8063L85.6185 41.7303H87.1114L86.4072 39.8063Z" fill="#646363"/>
<path d="M91.6465 38.3066H92.6887L95.1113 42.183V38.3066H96.1254V44.2202H95.1676L92.6606 40.1458V44.2202H91.6465V38.3066Z" fill="#646363"/>
<path d="M44.379 42.5225C44.4353 43.0884 45.0269 43.2864 45.3367 43.2864C45.7311 43.2864 46.1818 43.0035 46.1818 42.5508C46.1818 41.9566 45.7311 41.7585 45.0269 41.5038C44.5198 41.3341 43.5621 41.1077 43.5621 39.891C43.5621 38.929 44.3508 38.1934 45.3649 38.1934C46.0128 38.1934 47.0269 38.6744 47.0832 39.891H46.0691C46.0128 39.3252 45.6184 39.1837 45.3367 39.1837C45.0269 39.1837 44.6043 39.4383 44.6043 39.7779C44.6043 40.3155 45.1114 40.4852 45.7029 40.6833C46.1536 40.8531 47.2522 41.1643 47.2522 42.4659C47.2522 43.7108 46.2381 44.3616 45.3649 44.3616C44.5762 44.3616 43.4494 43.824 43.3931 42.5508H44.379V42.5225Z" fill="#646363"/>
<path d="M54.069 38.3066H53.0549V44.2202H54.069V38.3066Z" fill="#646363"/>
<path d="M47.0833 44.2202L49.4494 38.3066H50.2382L52.548 44.2202H51.4776L50.9142 42.7206H48.7452L48.1818 44.2202H47.0833ZM49.8438 39.8063L49.1114 41.7303H50.5762L49.8438 39.8063Z" fill="#646363"/>
<path d="M55.0833 38.3066H56.0973L58.548 42.1547V38.3066H59.5621V44.2202H58.6044L56.0973 40.1175V44.2202H55.0833V38.3066Z" fill="#646363"/>
<path d="M95.6465 35.3355L112.745 0.25H17.8437L0.745117 35.3355H95.6465Z" fill="#0070BA"/>
<path d="M23.6185 15.5858L23.3931 16.0385L19.3368 24.1308H16.6326L22.8579 11.6245H25.534L26.3227 20.2261L30.8016 11.6245H33.2805L27.0551 24.1308H24.4354L23.6185 15.5858Z" fill="white"/>
<path d="M31.5619 24.1592C30.9986 24.1026 30.7169 23.5367 30.9141 22.9425L35.9563 12.6432C36.576 11.6246 37.7028 11.6529 37.6183 11.6529H45.4774H45.5056C46.1817 11.7095 46.3225 12.3603 46.1535 12.8696L41.1112 23.1689C40.6605 24.2724 39.5056 24.1592 39.5619 24.1592H31.5619ZM38.3225 22.0088C38.1253 21.9805 39.1112 22.1503 39.4774 21.3014L42.8014 14.5673C42.9141 14.1994 42.9422 13.775 42.3507 13.7184H42.3225H38.8859C39.0831 13.7467 38.1535 13.6901 37.7028 14.4258L34.3788 21.16C34.2662 21.4995 34.5197 21.9805 34.8295 22.0088H38.3225Z" fill="white"/>
<path d="M46.4635 24.1308H43.9001L50.0128 11.6245H58.1818C58.1818 11.6245 59.7875 11.6528 59.4776 12.7846C59.1678 13.9164 56.717 18.6416 56.717 18.6416C56.717 18.6416 56.3509 19.5753 54.4072 19.4056H53.5339L54.379 24.1308H51.9001L51.1396 19.4339H48.7734L46.4635 24.1308ZM53.3931 17.6513C54.548 17.6796 54.9424 17.0288 54.9424 17.0288L56.1537 14.7369C56.5762 13.69 55.5058 13.7466 55.5058 13.7466H51.5058L49.6185 17.6513H53.3931Z" fill="white"/>
<path d="M66.6889 13.6901H70.6325L71.3931 11.6528H61.3649L60.5762 13.6901H64.2945L59.0833 24.1591H61.5058L66.6889 13.6901Z" fill="white"/>
<path d="M67.7028 24.1309C67.1394 24.0743 66.8577 23.5084 67.0549 22.9142L72.0972 12.6149C72.7169 11.5963 73.8437 11.6246 73.7592 11.6246H81.6183H81.6465C82.3225 11.7095 82.4634 12.332 82.2944 12.8413L77.2239 23.1689C76.7732 24.2724 75.6183 24.1592 75.6746 24.1592L67.7028 24.1309ZM74.4352 21.9805C74.238 21.9522 75.2239 22.1219 75.5901 21.2731L78.9141 14.539C79.0268 14.1711 79.0549 13.7467 78.4634 13.6901H78.4352H74.9986C75.1958 13.7184 74.2662 13.6618 73.8155 14.3975L70.4915 21.1316C70.3789 21.4712 70.6324 21.9522 70.9423 21.9805H74.4352Z" fill="white"/>
<path d="M86.4917 15.5858L86.2663 16.0385L82.21 24.1308H79.5339L85.7593 11.6245H88.4072L89.2241 20.2261L93.6748 11.6245H96.1537L89.9283 24.1308H87.3086L86.4917 15.5858Z" fill="white"/>
</svg>
