<svg width="76" height="65" viewBox="0 0 76 65" fill="none" xmlns="http://www.w3.org/2000/svg">
<path d="M0.776855 0.25H8.86111C10.0487 0.32623 11.2807 0.516805 12.2968 1.17746C13.1096 1.69202 13.7002 2.51784 13.9924 3.42625C14.3416 4.48711 14.3988 5.62421 14.2972 6.72954C14.2146 7.67606 14.0114 8.62894 13.5288 9.45476C13.0461 10.306 12.2777 10.9857 11.3823 11.3732C10.4043 11.8052 9.3247 11.9322 8.27051 11.9322C7.07025 11.9322 5.87 11.9322 4.66339 11.9322C4.66339 13.8697 4.66339 15.8136 4.66339 17.7511C3.36788 17.7511 2.07237 17.7511 0.776855 17.7511V0.25ZM4.70785 3.28649C4.70785 5.07154 4.70785 6.85659 4.70785 8.63529C5.70488 8.63529 6.70192 8.63529 7.69896 8.63529C8.32131 8.62894 8.96907 8.58447 9.54062 8.31767C10.0106 8.11439 10.3852 7.72053 10.5694 7.24409C10.7917 6.67872 10.8298 6.05618 10.798 5.45269C10.7599 4.84285 10.544 4.1949 10.0296 3.8201C9.41996 3.36907 8.61979 3.30555 7.88947 3.28649C6.82893 3.28014 5.76839 3.28649 4.70785 3.28649Z" fill="#0080FF"/>
<path d="M15.6753 0.25H28.6241C28.6241 1.32992 28.6241 2.40985 28.6241 3.48977C25.6076 3.48977 22.5847 3.48977 19.5682 3.48977C19.5682 4.78568 19.5682 6.07523 19.5682 7.37114C21.7274 7.37114 23.8802 7.37114 26.0394 7.37114C26.0394 8.66705 26.0394 9.96296 26.0394 11.2589C23.8802 11.2589 21.7274 11.2589 19.5682 11.2589C19.5682 13.4187 19.5682 15.5849 19.5682 17.7448C18.2727 17.7448 16.9772 17.7448 15.6816 17.7448C15.6753 11.9195 15.6753 6.08159 15.6753 0.25Z" fill="#0080FF"/>
<path d="M29.9196 0.25H42.881C42.881 1.32992 42.881 2.40985 42.881 3.48977C39.8582 3.48977 36.8353 3.48977 33.8188 3.48977C33.8188 4.56969 33.8188 5.64962 33.8188 6.72954C35.978 6.72954 38.1372 6.72954 40.2964 6.72954C40.2964 8.02545 40.2964 9.32136 40.2964 10.6173C38.1372 10.6173 35.978 10.6173 33.8188 10.6173C33.8188 11.6972 33.8188 12.7771 33.8188 13.857C36.8417 13.857 39.8582 13.857 42.881 13.857C42.881 15.1529 42.881 16.4489 42.881 17.7511C38.5627 17.7511 34.2379 17.7511 29.9196 17.7511C29.9196 11.9195 29.9196 6.08159 29.9196 0.25Z" fill="#0080FF"/>
<path d="M44.1702 0.25H53.5944C54.3692 0.294467 55.1439 0.42787 55.8679 0.732789C56.8014 1.11394 57.6206 1.78095 58.1604 2.63218C58.8463 3.6867 59.1003 4.9699 59.0749 6.21499C59.0622 7.38385 58.8527 8.60353 58.1858 9.58816C57.6079 10.4648 56.7062 11.0746 55.7663 11.5066C56.9284 13.5902 58.0969 15.6675 59.2591 17.7511C57.6842 17.7511 56.1029 17.7575 54.5279 17.7448C53.4928 15.8009 52.464 13.857 51.4098 11.9259C50.2921 11.9386 49.1808 11.9259 48.0694 11.9322C48.0694 13.8697 48.0694 15.8136 48.0694 17.7511C46.7676 17.7448 45.472 17.7575 44.1702 17.7448C44.1702 11.9132 44.1638 6.08159 44.1702 0.25ZM48.0631 3.48977C48.0631 5.224 48.0567 6.95188 48.0694 8.68611C49.511 8.67976 50.9526 8.68611 52.3878 8.67976C53.0673 8.65435 53.7976 8.59717 54.3692 8.18426C54.8645 7.82852 55.0804 7.21233 55.1439 6.63425C55.2201 5.97995 55.2201 5.27482 54.909 4.67133C54.6803 4.2076 54.2358 3.88363 53.7532 3.72481C52.953 3.4453 52.0893 3.49612 51.251 3.48977C50.1969 3.48977 49.13 3.48977 48.0631 3.48977Z" fill="#0080FF"/>
<path d="M60.364 0.25H67.9466C69.3691 0.307172 70.817 0.586682 72.0491 1.32357C73.2684 2.03505 74.1892 3.17215 74.7734 4.44264C76.2976 7.68242 76.0944 11.7162 74.1193 14.721C73.3255 15.9152 72.1253 16.8237 70.7599 17.2747C69.7819 17.6114 68.7468 17.7321 67.718 17.7511C65.273 17.7638 62.8217 17.7384 60.3767 17.7638C60.3513 15.6548 60.3767 13.5458 60.364 11.4367C60.364 7.70147 60.364 3.97891 60.364 0.25ZM64.2506 3.48977C64.2506 7.16786 64.2506 10.8396 64.2506 14.5177C65.3492 14.5177 66.4479 14.524 67.5465 14.5113C68.5372 14.505 69.5406 14.2128 70.3344 13.6093C71.1155 13.0249 71.6744 12.18 71.9983 11.2652C72.411 10.1218 72.4745 8.86398 72.2586 7.66971C72.0808 6.69778 71.6744 5.75761 71.0139 5.02072C70.3916 4.30924 69.5279 3.8201 68.607 3.62317C68.0672 3.49612 67.5084 3.48977 66.9496 3.48977C66.0478 3.48977 65.1523 3.48977 64.2506 3.48977Z" fill="#0080FF"/>
<path d="M0.776855 19.2695C25.779 19.2695 50.7748 19.2695 75.7769 19.2695V64.9185H0.776855V19.2695ZM1.65323 20.1208C1.65323 34.7633 1.65323 49.4121 1.65323 64.0546C26.0584 64.0546 50.4699 64.0546 74.8751 64.0546C74.8751 49.4121 74.8751 34.7633 74.8751 20.1208C50.4636 20.1144 26.0584 20.1208 1.65323 20.1208Z" fill="#0080FF"/>
<path d="M34.8475 22.8966C35.3302 22.3948 35.9462 21.9692 36.6511 21.9057C37.4131 21.8421 38.1307 22.236 38.6578 22.7569C39.2421 23.354 39.712 24.0528 40.1375 24.7706C40.8043 25.9077 41.1917 27.1909 41.5156 28.4614C42.0554 30.6213 42.4428 32.8129 42.7412 35.0236C43.3763 34.9156 44.0114 34.7949 44.6528 34.6805C45.5164 34.5217 46.3738 34.3375 47.2501 34.3057C48.4377 34.2358 49.6252 34.4645 50.7937 34.6043C52.2036 33.7785 53.6833 32.9844 55.309 32.6731C56.3568 32.4635 57.4301 32.4508 58.4906 32.527C59.7417 32.616 60.9864 32.7557 62.2311 32.8701C63.7933 33.0289 65.4064 33.086 66.9241 32.6287C67.5147 32.4508 68.0736 32.184 68.5943 31.86C68.5372 33.175 68.1625 34.4772 67.4893 35.6143C66.9622 36.491 66.3208 37.3295 65.4635 37.9076C64.0156 38.8922 62.2057 39.2162 60.4847 39.0764C59.2019 39.0002 58.0016 38.4348 56.7061 38.4221C56.287 38.4348 55.8742 38.5174 55.4678 38.6254C55.9377 39.3941 56.1409 40.2834 56.3314 41.1474C56.5791 42.2336 56.7633 43.339 57.1189 44.3998C57.2713 44.8699 57.4428 45.3527 57.7921 45.7148C58.2429 46.2103 58.9034 46.4644 59.5575 46.5597C60.2116 46.6486 60.8721 46.674 61.5325 46.6931C61.6405 46.6804 61.6786 46.8011 61.7357 46.8646C63.5076 49.2722 65.2857 51.6798 67.0639 54.0874C67.718 53.8587 68.3721 53.6236 69.0198 53.395C69.8644 55.0974 70.7091 56.7935 71.5473 58.496C70.8488 58.8517 70.1502 59.2075 69.458 59.5696C68.9119 59.8427 68.3721 60.1794 67.7561 60.2684C66.6574 60.4653 65.5524 60.046 64.6507 59.4298C63.7997 58.8581 63.1202 58.0767 62.4026 57.3526C60.8975 55.8089 59.3987 54.2589 57.8873 52.7216C54.8136 52.7534 51.7082 52.1499 48.9648 50.7333C47.4089 49.9328 46.0562 48.7513 44.9893 47.3664C44.2527 47.5761 43.5287 47.8238 42.7984 48.0398C42.5063 50.0917 42.1697 52.1435 41.7252 54.17C41.3949 55.6501 41.0139 57.1302 40.3344 58.496C39.8391 59.5188 39.2548 60.5225 38.4229 61.3102C37.9529 61.7548 37.3433 62.0915 36.6828 62.1233C36.1049 62.155 35.5588 61.8692 35.1269 61.5007C34.2633 60.7638 33.6536 59.7856 33.1583 58.7755C32.7455 57.956 32.4407 57.0921 32.2184 56.2028C31.6849 54.0239 31.3674 51.8068 31.1007 49.5835C29.7036 49.4501 28.3128 49.2087 26.9601 48.8085C26.8522 48.764 26.7379 48.8275 26.6363 48.8466C23.4419 49.7169 20.2412 50.5808 17.0469 51.4511C16.9263 51.4829 16.8374 51.5781 16.7357 51.648C14.9322 53.0265 13.1286 54.3986 11.3251 55.7771C11.3251 56.3235 11.3251 56.8698 11.3251 57.4161C9.2675 58.2101 7.21627 59.0106 5.16504 59.8046C5.34285 57.8163 5.51432 55.8343 5.69213 53.846C5.69213 53.7316 5.8128 53.6745 5.8763 53.5982C8.16885 51.4003 10.4614 49.2023 12.7539 47.0044C12.8492 46.9154 12.9699 46.8837 13.0842 46.8265C15.5101 45.7402 17.9423 44.6476 20.3683 43.5677C20.4762 43.5105 20.6286 43.4914 20.6604 43.358C21.0287 42.5004 21.4161 41.6492 21.7717 40.7853C20.6794 39.5719 19.6062 38.3396 18.5202 37.1262C17.1231 37.6281 15.726 38.1363 14.3289 38.6381C14.2019 38.6889 14.0368 38.7016 13.986 38.8478C13.5541 39.6101 13.008 40.366 12.1951 40.7535C11.3124 41.1728 10.2518 40.9885 9.41356 40.5375C8.36572 39.9721 7.65446 38.9939 6.98765 38.041C9.50247 33.1178 12.03 28.1946 14.5448 23.2651C14.5829 23.227 14.5893 23.0872 14.6655 23.1317C15.6371 24.5483 16.6024 25.9713 17.574 27.3879C19.0854 27.229 20.6286 27.4323 22.0639 27.9278C24.2294 28.652 26.2235 29.8145 28.1667 30.9897C29.132 31.5678 30.091 32.1586 31.0435 32.7557C31.323 31.2311 31.6595 29.7129 32.0723 28.22C32.3898 27.1083 32.7264 25.9967 33.2789 24.9803C33.7489 24.2307 34.2569 23.5255 34.8475 22.8966ZM35.8191 24.6944C35.4064 25.12 35.0761 25.6219 34.784 26.1364C34.2506 27.0893 33.9838 28.1629 33.7298 29.2174C33.3678 30.7928 33.0884 32.3809 32.8788 33.9817C33.7806 34.5789 34.7586 35.1125 35.8382 35.284C37.5211 35.5508 39.2357 35.4365 40.925 35.3348C40.7789 34.0961 40.6075 32.8637 40.3979 31.6313C40.182 30.3672 39.9597 29.103 39.5723 27.8834C39.2802 26.994 38.8865 26.1301 38.3657 25.3487C38.0418 24.8977 37.6672 24.4149 37.102 24.2624C36.6384 24.129 36.1494 24.3641 35.8191 24.6944ZM14.7861 27.0956C12.9762 30.6403 11.1663 34.1914 9.3564 37.7361C9.67393 38.2125 10.0486 38.7143 10.6138 38.9049C10.9504 39.0256 11.3632 39.0066 11.6235 38.7398C11.9855 38.365 12.0617 37.8186 12.0935 37.3168C14.5321 36.4084 16.9644 35.4873 19.403 34.5725C21.0605 36.4465 22.7116 38.3268 24.3691 40.2072C23.734 41.7699 23.1053 43.3326 22.4703 44.8953C19.7205 46.1023 16.9707 47.3093 14.2146 48.5162C14.0749 48.5798 13.9161 48.6242 13.8018 48.7386C11.668 50.7333 9.53422 52.7279 7.40043 54.7226C7.40043 55.3896 7.40043 56.0567 7.40043 56.7237C7.97198 56.5267 8.54353 56.3362 9.11508 56.1392C9.11508 55.7517 9.11508 55.3579 9.11508 54.9704C11.4013 53.2171 13.6748 51.4447 15.9673 49.7042C19.7269 48.6751 23.4864 47.665 27.2523 46.6486C28.2683 47.0806 29.3416 47.3664 30.4339 47.5253C31.8882 47.7222 33.3551 47.773 34.8158 47.6523C36.9368 47.4808 39.0135 47.0107 41.0838 46.5406C41.2425 43.447 41.2362 40.3469 41.0774 37.2596C39.6041 37.3867 38.118 37.4248 36.6447 37.3041C35.4381 37.2088 34.2442 36.9166 33.1329 36.4338C32.2755 36.0844 31.5262 35.5508 30.7451 35.068C29.5194 34.2994 28.2937 33.5371 27.0617 32.7811C25.1375 31.6059 23.1561 30.4815 20.9906 29.8209C19.549 29.3762 18.0122 29.3381 16.5262 29.5668C15.9483 28.7409 15.3704 27.9151 14.7861 27.0956ZM56.5283 34.4963C55.7091 34.5598 54.9153 34.7885 54.1532 35.0934C53.1308 35.4936 52.1464 35.9828 51.1938 36.5164C49.7332 36.2369 48.2281 36.0082 46.7421 36.2305C45.4593 36.4275 44.1892 36.7006 42.9191 36.9547C43.0778 39.9023 43.1223 42.8498 43.0016 45.7974C43.9288 45.4734 44.8496 45.1431 45.7768 44.8254C46.323 45.575 46.9136 46.2929 47.555 46.9662C48.3996 47.8429 49.3966 48.5734 50.5016 49.1007C51.7146 49.6724 52.991 50.1044 54.3056 50.3839C55.8424 50.7015 57.411 50.8158 58.9733 50.854C60.8721 52.8105 62.7709 54.7671 64.6634 56.7237C65.2794 57.397 65.9843 58.064 66.8924 58.3054C67.2099 58.388 67.5656 58.388 67.8577 58.2228C68.2324 58.0196 68.607 57.8099 68.9754 57.6067C68.6261 56.9396 68.2768 56.2726 67.9212 55.6056C67.3179 55.8089 66.7146 56.0122 66.1113 56.2155C64.2887 53.6999 62.4851 51.1716 60.6625 48.656C59.4686 48.4591 58.1921 48.4337 57.0998 47.8492C56.2362 47.3919 55.5821 46.5914 55.2518 45.6767C54.9407 44.781 54.8327 43.8281 54.6993 42.8943C54.5088 41.7699 54.2802 40.6201 53.6896 39.6291C53.2705 38.924 52.7751 38.276 52.2353 37.6662C53.2451 37.1008 54.2929 36.5418 55.4487 36.383C56.2425 36.3004 57.03 36.4592 57.8111 36.5736C58.6557 36.7006 59.4813 36.9547 60.3386 37.0182C61.5135 37.1326 62.7518 37.0563 63.8124 36.51C64.6125 36.1035 65.2413 35.4238 65.6731 34.6424C64.9745 34.8393 64.2506 34.96 63.5203 34.9346C62.3073 34.9029 61.1007 34.7504 59.8941 34.5852C58.7764 34.4518 57.646 34.4074 56.5283 34.4963ZM36.7908 49.4691C35.5016 49.6597 34.1998 49.7042 32.8979 49.666C33.1138 51.4257 33.3932 53.1853 33.7806 54.9132C34.0346 56.0058 34.3331 57.1175 34.9237 58.0831C35.2285 58.5849 35.5588 59.0931 36.0033 59.4806C36.4097 59.83 37.0385 59.8936 37.483 59.5886C38.0164 59.2392 38.3848 58.6866 38.6959 58.1403C39.2548 57.1429 39.6485 56.063 39.8962 54.945C40.3725 52.855 40.6773 50.7269 40.944 48.5988C39.5723 48.9482 38.1943 49.2722 36.7908 49.4691Z" fill="#0080FF"/>
<path d="M14.3289 30.4622C15.0021 30.3225 15.6943 30.7925 15.8721 31.4405C16.0436 32.0567 15.7007 32.7491 15.1228 33.0096C14.6592 33.2319 14.0749 33.143 13.6939 32.8063C13.3192 32.495 13.135 31.9741 13.243 31.4977C13.3446 30.9768 13.8018 30.5511 14.3289 30.4622Z" fill="#0080FF"/>
</svg>
